<?xml version="1.0" encoding="UTF-8" standalone="no"?>
<svg
   viewBox="0 0 30 30"
   width="30px"
   height="30px"
   version="1.1"
   id="svg4"
   sodipodi:docname="x_icon.svg"
   inkscape:version="1.1.2 (b8e25be833, 2022-02-05)"
   xmlns:inkscape="http://www.inkscape.org/namespaces/inkscape"
   xmlns:sodipodi="http://sodipodi.sourceforge.net/DTD/sodipodi-0.dtd"
   xmlns="http://www.w3.org/2000/svg"
   xmlns:svg="http://www.w3.org/2000/svg">
  <defs
     id="defs8" />
  <sodipodi:namedview
     id="namedview6"
     pagecolor="#505050"
     bordercolor="#eeeeee"
     borderopacity="1"
     inkscape:pageshadow="0"
     inkscape:pageopacity="0"
     inkscape:pagecheckerboard="0"
     showgrid="false"
     inkscape:zoom="27.7"
     inkscape:cx="14.981949"
     inkscape:cy="15.018051"
     inkscape:window-width="1920"
     inkscape:window-height="1017"
     inkscape:window-x="-8"
     inkscape:window-y="-8"
     inkscape:window-maximized="1"
     inkscape:current-layer="svg4" />
  <path
     d="M26.37,26l-8.795-12.822l0.015,0.012L25.52,4h-2.65l-6.46,7.48L11.28,4H4.33l8.211,11.971L12.54,15.97L3.88,26h2.65 l7.182-8.322L19.42,26H26.37z M10.23,6l12.34,18h-2.1L8.12,6H10.23z"
     id="path2"
     style="fill:#ffffff;fill-opacity:0.40000001;stroke:none" />
  <path
     style="fill:#ffffff;fill-opacity:0;stroke:none"
     d="m 3.9251308,25.947653 c 0.0305,-0.03475 1.98087,-2.294096 4.3341551,-5.020776 L 12.537987,15.969278 12.025451,15.222906 C 8.1786574,9.621069 4.3501805,4.028591 4.3501805,4.011193 c 0,-0.012113 1.5582251,-0.022023 3.4627224,-0.022023 h 3.4627221 l 2.557133,3.7345393 c 1.406424,2.0539964 2.568208,3.7313427 2.581743,3.7274367 0.01353,-0.0039 1.47306,-1.6844489 3.243388,-3.7345392 L 22.876668,3.98917 h 1.316167 c 1.091017,0 1.311229,0.00828 1.287298,0.048424 -0.01588,0.026633 -1.791505,2.0910194 -3.945837,4.5875252 -2.154332,2.4965048 -3.915216,4.5581978 -3.913076,4.5815388 0.0021,0.02334 1.96466,2.900554 4.361154,6.393805 2.396495,3.493251 4.365468,6.364641 4.375496,6.380866 0.01003,0.01623 -1.546354,0.02933 -3.458627,0.02912 l -3.47686,-3.84e-4 -2.846013,-4.151241 c -1.565308,-2.283182 -2.856824,-4.150709 -2.870036,-4.150059 -0.01321,6.5e-4 -1.632327,1.86803 -3.598031,4.149734 l -3.574007,4.148554 -1.33231,0.0019 c -1.2660094,0.0018 -1.3295504,-0.0013 -1.2768552,-0.06129 z M 22.488569,23.889892 C 22.28651,23.580618 10.292417,6.0932652 10.256377,6.0553913 10.222851,6.02016 9.9758982,6.0118952 9.1776747,6.0192902 l -1.0352224,0.00959 6.1613317,8.9801438 6.161331,8.980145 h 1.044158 1.044157 z"
     id="path862" />
</svg>
